DBRep_DrawableShape

CASCADE Topology V2, (c) Matra-Datavision
Locations 0
Curve2ds 9
1 0 0 1 0 
1 0 5.196152422706632 1 0 
1 0 -0 0 1 
1 6.2831853071795862 -0 0 1 
1 0 0 1 0 
1 3.1415926535897931 0 0 1 
1 3.1415926535897931 0 0 1 
1 0 0 1 0 
1 0 5.196152422706632 1 0 
Curves 6
2 3.0000000000000004 3 3.0000000000000004 0.57735026918962584 0.57735026918962584 0.57735026918962573 -0.40824829046386307 -0.40824829046386302 0.81649658092772615 0.70710678118654746 -0.70710678118654757 -6.1629758220391547e-33 1
1 -0.40824829046386324 -0.40824829046386285 0.81649658092772615 0.57735026918962584 0.57735026918962573 0.57735026918962584 
2 0 0 0 0.57735026918962584 0.57735026918962584 0.57735026918962573 -0.40824829046386307 -0.40824829046386302 0.81649658092772615 0.70710678118654746 -0.70710678118654757 -6.1629758220391547e-33 1
1 0.40824829046386318 0.40824829046386291 -0.81649658092772615 0.57735026918962584 0.57735026918962573 0.57735026918962584 
2 0 0 0 0.57735026918962584 0.57735026918962584 0.57735026918962573 -0.40824829046386307 -0.40824829046386302 0.81649658092772615 0.70710678118654746 -0.70710678118654757 -6.1629758220391547e-33 1
2 3.0000000000000004 3 3.0000000000000004 0.57735026918962584 0.57735026918962584 0.57735026918962573 -0.40824829046386307 -0.40824829046386302 0.81649658092772615 0.70710678118654746 -0.70710678118654757 -6.1629758220391547e-33 1
Polygon3D 0
PolygonOnTriangulations 0
Surfaces 5
9 0 1 0 0 2 1 5 2 3 2 0 0 0  1 -0.25 0 -1  1 
0 0 0  0.70710678118699999 -0.25 0.25 -1  0.70710678118699999 
0 0 0  1 0 0.25 -1  1 
0 0 0  0.70710678118699999 0.25 0.25 -1  0.70710678118699999 
0 0 0  1 0.25 0 -1  1 

0 3
0.5 2
1 3

0 2
1 2

10 0 3.1415926535897931 0 5.196152422706632
2 0 0 0 0.57735026918962584 0.57735026918962573 0.57735026918962584 -0.40824829046386307 -0.40824829046386302 0.81649658092772615 0.70710678118654746 -0.70710678118654757 -6.1629758220391547e-33 1
10 3.1415926535897931 6.2831853071795862 0 5.196152422706632
2 0 0 0 0.57735026918962584 0.57735026918962573 0.57735026918962584 -0.40824829046386307 -0.40824829046386302 0.81649658092772615 0.70710678118654746 -0.70710678118654757 -6.1629758220391547e-33 1
1 3.0000000000000004 3 3.0000000000000004 0.57735026918962584 0.57735026918962573 0.57735026918962584 -0.40824829046386307 -0.40824829046386302 0.81649658092772615 0.70710678118654746 -0.70710678118654757 -6.1629758220391547e-33 
1 0 0 0 0.57735026918962584 0.57735026918962573 0.57735026918962584 -0.40824829046386307 -0.40824829046386302 0.81649658092772615 0.70710678118654746 -0.70710678118654757 -6.1629758220391547e-33 
Triangulations 0

TShapes 24
Ve
1e-07
0 0 0
0 0

0101101
*
Ed
 1e-07 1 1 1
2  1 1 0 0 1
0 0 1 0
0

0101000
+24 0 -24 0 *
Wi

0101100
+23 0 *
Ve
1e-07
3.40824829046386 3.40824829046386 2.18350341907227
0 0

0101101
*
Ve
1e-07
2.59175170953614 2.59175170953614 3.81649658092773
0 0

0101101
*
Ed
 1e-07 1 1 0
1  1 0 0 3.14159265358979
2  2 2 0 0 3.14159265358979
0 5.19615242270663 3.14159265358979 5.19615242270663
0

0101000
-21 0 +20 0 *
Ve
1e-07
-0.408248290463863 -0.408248290463863 0.816496580927726
0 0

0101101
*
Ed
 1e-07 1 1 0
1  2 0 0 5.19615242270663
2  3 2 0 0 5.19615242270663
0 0 0 5.19615242270663
2  4 3 0 0 5.19615242270663
6.28318530717959 0 6.28318530717959 5.19615242270663
0

0101000
-20 0 +18 0 *
Ve
1e-07
0.408248290463863 0.408248290463863 -0.816496580927726
0 0

0101101
*
Ed
 1e-07 1 1 0
1  3 0 0 3.14159265358979
2  5 2 0 0 3.14159265358979
0 0 3.14159265358979 0
0

0101000
+18 0 -16 0 *
Ed
 1e-05 1 1 0
1  4 0 0 5.19615242270663
2  6 2 0 0 5.19615242270663
3.14159265358979 0 3.14159265358979 5.19615242270663
2  7 3 0 0 5.19615242270663
3.14159265358979 0 3.14159265358979 5.19615242270663
0

0101000
+16 0 -21 0 *
Wi

0101100
-19 0 -17 0 +15 0 +14 0 *
Fa
0  1e-07 2 0

0101000
+13 0 *
Ed
 1e-07 1 1 0
1  5 0 3.14159265358979 6.28318530717959
2  8 3 0 3.14159265358979 6.28318530717959
3.14159265358979 0 6.28318530717959 0
0

0101000
+16 0 -18 0 *
Ed
 1e-07 1 1 0
1  6 0 3.14159265358979 6.28318530717959
2  9 3 0 3.14159265358979 6.28318530717959
3.14159265358979 5.19615242270663 6.28318530717959 5.19615242270663
0

0101000
-20 0 +21 0 *
Wi

0101100
+11 0 +17 0 -10 0 -14 0 *
Fa
0  1e-07 3 0

0101000
+9 0 *
Wi

0101100
+19 0 +10 0 *
Fa
0  1e-07 4 0

0101000
+7 0 *
Wi

0101100
-15 0 -11 0 *
Fa
0  1e-07 5 0

0101000
-5 0 *
Sh

0101100
+12 0 +8 0 +6 0 -4 0 *
So

0100000
+3 0 *
Co

1100000
+22 0 +2 0 *

+1 0 
##EGADS HEADER FILE-REV 1 ##
0
  0  0  0  1  1  1  2
1 5 1
_body
2
1 5 1
_brch
2
    5 0 3
1 7 1
_nodeID
1
1 6 1
_nedge
0
1 9 2
__trace__
2 1 
    0 0 0
  1  1  4  4  6  4  2
1 5 1
_body
3
1 5 1
_brch
3
    2 0 6
1 5 2
_body
3 3 
1 5 2
_brch
3 3 
1 6 1
_nedge
4
1 5 1
_hist
3
1 7 3
_faceID
3 3 1 
1 9 2
__trace__
3 1 
    2 1 6
1 5 2
_body
3 4 
1 5 2
_brch
3 4 
1 6 1
_nedge
4
1 5 1
_hist
3
1 7 3
_faceID
3 4 1 
1 9 2
__trace__
3 2 
    2 2 6
1 5 2
_body
3 2 
1 5 2
_brch
3 2 
1 6 1
_nedge
2
1 5 1
_hist
3
1 7 3
_faceID
3 2 1 
1 9 2
__trace__
3 3 
    2 3 6
1 5 2
_body
3 1 
1 5 2
_brch
3 1 
1 6 1
_nedge
2
1 5 1
_hist
3
1 7 3
_faceID
3 1 1 
1 9 2
__trace__
3 4 
    4 0 4
1 5 2
_body
3 20003 
1 7 5
_edgeID
3 2 3 3 1 
1 6 1
_nface
2
1 9 2
__trace__
3 1 
    4 1 4
1 5 2
_body
3 40003 
1 7 5
_edgeID
3 3 3 4 1 
1 6 1
_nface
2
1 9 2
__trace__
3 2 
    4 2 4
1 5 2
_body
3 30001 
1 7 5
_edgeID
3 1 3 3 1 
1 6 1
_nface
2
1 9 2
__trace__
3 3 
    4 3 4
1 5 2
_body
3 30004 
1 7 5
_edgeID
3 3 3 4 2 
1 6 1
_nface
2
1 9 2
__trace__
3 4 
    4 4 4
1 5 2
_body
3 40001 
1 7 5
_edgeID
3 1 3 4 1 
1 6 1
_nface
2
1 9 2
__trace__
3 5 
    4 5 4
1 5 2
_body
3 20004 
1 7 5
_edgeID
3 2 3 4 1 
1 6 1
_nface
2
1 9 2
__trace__
3 6 
    5 0 3
1 7 1
_nodeID
1
1 6 1
_nedge
3
1 9 2
__trace__
3 1 
    5 1 3
1 7 1
_nodeID
2
1 6 1
_nedge
3
1 9 2
__trace__
3 2 
    5 2 3
1 7 1
_nodeID
3
1 6 1
_nedge
3
1 9 2
__trace__
3 3 
    5 3 3
1 7 1
_nodeID
4
1 6 1
_nedge
3
1 9 2
__trace__
3 4 
    0 0 0
